<?xml version="1.0" standalone="no"?>
<!DOCTYPE svg PUBLIC "-//W3C//DTD SVG 20010904//EN"
 "http://www.w3.org/TR/2001/REC-SVG-20010904/DTD/svg10.dtd">
<svg version="1.0" xmlns="http://www.w3.org/2000/svg"
 width="301.000000pt" height="169.000000pt" viewBox="0 0 301.000000 169.000000"
 preserveAspectRatio="xMidYMid meet">

<g transform="translate(0.000000,169.000000) scale(0.100000,-0.100000)"
fill="#000000" stroke="none">
<path d="M1370 1565 c-36 -7 -83 -20 -105 -28 -75 -27 -237 -115 -214 -117 3
0 31 -5 63 -11 52 -9 64 -8 148 21 312 105 642 30 863 -196 39 -39 86 -98 105
-132 24 -41 46 -66 69 -77 18 -9 36 -13 39 -10 3 3 -15 47 -41 98 -53 107
-132 206 -220 277 -73 59 -236 143 -322 166 -83 22 -301 27 -385 9z"/>
<path d="M1020 1382 c0 -6 6 -13 13 -15 6 -3 -10 -6 -36 -6 -40 -1 -48 -4 -45
-18 6 -33 86 -68 280 -123 75 -22 76 -23 65 -46 -6 -15 -7 -28 -1 -34 8 -7
214 -80 228 -80 3 0 -3 15 -14 33 -32 51 -27 55 48 36 95 -23 279 -49 356 -49
52 0 70 4 86 20 11 11 31 22 45 26 14 3 28 11 32 17 4 7 -21 8 -78 4 -67 -4
-76 -3 -42 4 30 7 52 22 77 51 63 74 21 78 -103 11 l-87 -47 -102 29 c-56 16
-102 31 -102 34 0 3 36 26 80 51 44 25 80 48 80 53 0 16 -58 5 -163 -32 -122
-43 -181 -59 -158 -43 11 8 -4 16 -60 32 -41 12 -126 37 -189 56 -127 39 -210
53 -210 36z m395 -142 c18 -8 17 -9 -7 -9 -19 -1 -28 -6 -28 -18 0 -9 -3 -14
-6 -10 -7 7 5 47 14 46 4 0 16 -4 27 -9z m-47 -75 c2 -1 -9 -5 -23 -7 -20 -4
-25 -1 -25 14 0 16 3 17 23 7 12 -6 23 -13 25 -14z m539 -31 c-3 -3 -12 -4
-19 -1 -8 3 -5 6 6 6 11 1 17 -2 13 -5z"/>
<path d="M866 1250 c-118 -160 -176 -328 -176 -509 0 -77 28 -216 60 -300 46
-119 61 -127 22 -10 -34 99 -36 111 -36 244 -1 118 3 153 22 219 31 107 91
220 162 305 64 76 64 68 3 105 -8 4 -29 -15 -57 -54z"/>
<path d="M2080 1056 c0 -2 25 -18 55 -35 72 -41 135 -104 135 -135 0 -14 -11
-33 -26 -45 -31 -24 -119 -58 -174 -67 -39 -6 -40 -7 -40 -50 l0 -43 38 6 c63
10 182 50 217 74 65 45 83 113 43 164 -28 36 -109 87 -181 114 -60 22 -67 24
-67 17z"/>
<path d="M2266 998 c125 -70 156 -141 92 -215 l-33 -37 44 25 c108 60 86 147
-54 217 -59 29 -98 37 -49 10z"/>
<path d="M1160 915 l0 -75 75 0 75 0 0 75 0 75 -75 0 -75 0 0 -75z"/>
<path d="M1350 915 l0 -75 80 0 80 0 0 75 0 75 -80 0 -80 0 0 -75z"/>
<path d="M1550 915 l0 -75 75 0 75 0 0 75 0 75 -75 0 -75 0 0 -75z"/>
<path d="M1740 915 l0 -75 75 0 75 0 0 75 0 75 -75 0 -75 0 0 -75z"/>
<path d="M1080 730 l0 -80 48 0 47 -1 -35 -19 c-21 -12 -55 -19 -87 -20 -52 0
-53 0 -53 -31 0 -20 -8 -37 -22 -49 -17 -13 -20 -22 -12 -30 8 -8 34 2 95 34
108 58 271 112 379 126 70 9 103 8 181 -4 116 -19 278 -74 378 -128 58 -32 75
-37 82 -26 6 9 2 18 -11 27 -13 9 -20 25 -20 47 l0 34 -52 0 c-33 1 -67 8 -88
20 l-35 19 48 1 47 0 0 80 0 80 -75 0 -75 0 0 -71 c0 -52 -3 -70 -12 -67 -8 3
-15 30 -18 69 l-5 64 -77 3 -78 3 0 -41 c0 -29 -4 -40 -15 -40 -11 0 -15 11
-15 40 l0 40 -74 0 -75 0 -3 -37 c-2 -27 -8 -39 -20 -41 -15 -3 -18 4 -18 37
l0 41 -75 0 -75 0 0 -64 c0 -48 -4 -65 -15 -70 -12 -4 -15 6 -15 64 l0 70 -75
0 -75 0 0 -80z"/>
<path d="M2357 733 c-4 -3 -7 -33 -7 -65 0 -74 -25 -196 -55 -270 -13 -32 -22
-58 -19 -58 2 0 15 23 30 52 61 121 102 392 51 341z"/>
<path d="M1372 606 c-112 -22 -208 -54 -317 -106 -151 -72 -144 -53 -69 -209
42 -89 61 -138 55 -145 -6 -7 -6 -17 -1 -26 6 -8 10 -18 10 -22 0 -15 -96 -8
-165 12 -93 26 -124 25 -65 -3 26 -12 68 -38 95 -57 68 -47 140 -52 244 -16
87 30 185 34 271 11 70 -19 144 -19 206 0 77 23 190 19 281 -10 124 -39 185
-33 268 31 17 13 51 32 75 43 37 16 40 20 20 20 -14 0 -54 -8 -88 -19 -67 -21
-157 -27 -167 -11 -3 5 -1 12 5 16 20 12 10 35 -15 35 -25 0 -24 3 45 140 l70
139 -43 25 c-216 127 -514 190 -715 152z"/>
</g>
</svg>
